<svg width="78" height="34" viewBox="0 0 78 34" fill="none" xmlns="http://www.w3.org/2000/svg">
<mask id="path-1-outside-1_1_8" maskUnits="userSpaceOnUse" x="3.28267" y="2" width="10" height="11" fill="black">
<rect fill="white" x="3.28267" y="2" width="10" height="11"/>
<path d="M8.15467 12.12C7.21867 12.12 6.41467 11.936 5.74267 11.568C5.07067 11.2 4.55067 10.684 4.18267 10.02C3.82267 9.356 3.64267 8.58 3.64267 7.692C3.64267 6.812 3.82667 6.04 4.19467 5.376C4.56267 4.704 5.07067 4.18 5.71867 3.804C6.37467 3.428 7.13467 3.24 7.99867 3.24C8.71067 3.24 9.34667 3.368 9.90667 3.624C10.4747 3.88 10.9307 4.232 11.2747 4.68C11.6267 5.12 11.8347 5.632 11.8987 6.216H10.0507C9.97067 5.744 9.74667 5.376 9.37867 5.112C9.01867 4.84 8.56667 4.704 8.02267 4.704C7.51867 4.704 7.07867 4.824 6.70267 5.064C6.32667 5.296 6.03467 5.632 5.82667 6.072C5.61867 6.512 5.51467 7.04 5.51467 7.656C5.51467 8.296 5.61867 8.844 5.82667 9.3C6.03467 9.748 6.33867 10.092 6.73867 10.332C7.14667 10.564 7.64667 10.68 8.23867 10.68C8.71867 10.68 9.12667 10.62 9.46267 10.5C9.79867 10.38 10.0547 10.212 10.2307 9.996L11.9827 10.692C11.5187 11.156 10.9787 11.512 10.3627 11.76C9.75467 12 9.01867 12.12 8.15467 12.12ZM10.1347 10.692V8.316L10.5067 8.688H8.22667V7.272H11.9827V10.692H10.1347Z"/>
</mask>
<path d="M5.74267 11.568L5.88676 11.3049V11.3049L5.74267 11.568ZM4.18267 10.02L3.91893 10.163L3.92027 10.1654L4.18267 10.02ZM4.19467 5.376L4.45707 5.52143L4.4578 5.52009L4.19467 5.376ZM5.71867 3.804L5.56948 3.54372L5.56811 3.54452L5.71867 3.804ZM9.90667 3.624L9.78194 3.89685L9.7834 3.8975L9.90667 3.624ZM11.2747 4.68L11.0367 4.86274L11.0404 4.86741L11.2747 4.68ZM11.8987 6.216V6.516H12.2333L12.1969 6.18332L11.8987 6.216ZM10.0507 6.216L9.75489 6.26613L9.79724 6.516H10.0507V6.216ZM9.37867 5.112L9.19776 5.35143L9.2038 5.35576L9.37867 5.112ZM6.70267 5.064L6.86022 5.31934L6.86408 5.31688L6.70267 5.064ZM5.82667 6.072L6.09789 6.20021V6.20021L5.82667 6.072ZM5.82667 9.3L5.55372 9.4245L5.55457 9.42633L5.82667 9.3ZM6.73867 10.332L6.58428 10.5893L6.59038 10.5928L6.73867 10.332ZM9.46267 10.5L9.56357 10.7825V10.7825L9.46267 10.5ZM10.2307 9.996L10.3414 9.71719L10.137 9.63599L9.9981 9.8065L10.2307 9.996ZM11.9827 10.692L12.1948 10.9041L12.5173 10.5816L12.0934 10.4132L11.9827 10.692ZM10.3627 11.76L10.4728 12.0391L10.4747 12.0383L10.3627 11.76ZM10.1347 10.692H9.83467V10.992H10.1347V10.692ZM10.1347 8.316L10.3468 8.10387L9.83467 7.59174V8.316H10.1347ZM10.5067 8.688V8.988H11.2309L10.7188 8.47587L10.5067 8.688ZM8.22667 8.688H7.92667V8.988H8.22667V8.688ZM8.22667 7.272V6.972H7.92667V7.272H8.22667ZM11.9827 7.272H12.2827V6.972H11.9827V7.272ZM11.9827 10.692V10.992H12.2827V10.692H11.9827ZM8.15467 12.12V11.82C7.25797 11.82 6.50581 11.6439 5.88676 11.3049L5.74267 11.568L5.59857 11.8311C6.32353 12.2281 7.17937 12.42 8.15467 12.42V12.12ZM5.74267 11.568L5.88676 11.3049C5.26405 10.9639 4.78529 10.4885 4.44507 9.87458L4.18267 10.02L3.92027 10.1654C4.31605 10.8795 4.87729 11.4361 5.59857 11.8311L5.74267 11.568ZM4.18267 10.02L4.4464 9.87701C4.11407 9.26404 3.94267 8.53885 3.94267 7.692H3.64267H3.34267C3.34267 8.62115 3.53127 9.44796 3.91894 10.163L4.18267 10.02ZM3.64267 7.692H3.94267C3.94267 6.85471 4.11741 6.13429 4.45707 5.52142L4.19467 5.376L3.93227 5.23058C3.53593 5.94571 3.34267 6.76929 3.34267 7.692H3.64267ZM4.19467 5.376L4.4578 5.52009C4.80013 4.89496 5.26969 4.41136 5.86923 4.06348L5.71867 3.804L5.56811 3.54452C4.87164 3.94864 4.32521 4.51304 3.93154 5.2319L4.19467 5.376ZM5.71867 3.804L5.86785 4.06428C6.47229 3.71783 7.17943 3.54 7.99867 3.54V3.24V2.94C7.08991 2.94 6.27705 3.13817 5.56949 3.54372L5.71867 3.804ZM7.99867 3.24V3.54C8.67432 3.54 9.26675 3.66133 9.78194 3.89684L9.90667 3.624L10.0314 3.35116C9.42659 3.07467 8.74702 2.94 7.99867 2.94V3.24ZM9.90667 3.624L9.7834 3.8975C10.311 4.1353 10.7259 4.4579 11.0367 4.86271L11.2747 4.68L11.5126 4.49729C11.1354 4.0061 10.6383 3.6247 10.0299 3.3505L9.90667 3.624ZM11.2747 4.68L11.0404 4.86741C11.3553 5.26099 11.5424 5.71874 11.6005 6.24868L11.8987 6.216L12.1969 6.18332C12.127 5.54526 11.8981 4.979 11.5089 4.49259L11.2747 4.68ZM11.8987 6.216V5.916H10.0507V6.216V6.516H11.8987V6.216ZM10.0507 6.216L10.3465 6.16587C10.2541 5.62084 9.98974 5.18116 9.55354 4.86824L9.37867 5.112L9.2038 5.35576C9.5036 5.57084 9.68726 5.86716 9.75489 6.26613L10.0507 6.216ZM9.37867 5.112L9.55952 4.87264C9.13741 4.55371 8.61815 4.404 8.02267 4.404V4.704V5.004C8.51519 5.004 8.89993 5.12629 9.19782 5.35136L9.37867 5.112ZM8.02267 4.704V4.404C7.46912 4.404 6.97153 4.53648 6.54126 4.81112L6.70267 5.064L6.86408 5.31688C7.18581 5.11152 7.56822 5.004 8.02267 5.004V4.704ZM6.70267 5.064L6.54514 4.80869C6.11478 5.07423 5.78564 5.45685 5.55545 5.94379L5.82667 6.072L6.09789 6.20021C6.2837 5.80715 6.53856 5.51777 6.8602 5.31931L6.70267 5.064ZM5.82667 6.072L5.55545 5.94379C5.32416 6.43305 5.21467 7.00708 5.21467 7.656H5.51467H5.81467C5.81467 7.07292 5.91318 6.59095 6.09789 6.20021L5.82667 6.072ZM5.51467 7.656H5.21467C5.21467 8.32749 5.32368 8.92018 5.55372 9.4245L5.82667 9.3L6.09961 9.1755C5.91366 8.76782 5.81467 8.26451 5.81467 7.656H5.51467ZM5.82667 9.3L5.55457 9.42633C5.78627 9.92539 6.12975 10.3165 6.58432 10.5892L6.73867 10.332L6.89302 10.0748C6.54758 9.86749 6.28307 9.57061 6.09877 9.17367L5.82667 9.3ZM6.73867 10.332L6.59038 10.5928C7.05393 10.8564 7.60804 10.98 8.23867 10.98V10.68V10.38C7.68529 10.38 7.23941 10.2716 6.88696 10.0712L6.73867 10.332ZM8.23867 10.68V10.98C8.74194 10.98 9.18616 10.9173 9.56357 10.7825L9.46267 10.5L9.36177 10.2175C9.06718 10.3227 8.69539 10.38 8.23867 10.38V10.68ZM9.46267 10.5L9.56357 10.7825C9.93689 10.6492 10.2442 10.4543 10.4632 10.1855L10.2307 9.996L9.9981 9.8065C9.86512 9.9697 9.66045 10.1108 9.36177 10.2175L9.46267 10.5ZM10.2307 9.996L10.1199 10.2748L11.8719 10.9708L11.9827 10.692L12.0934 10.4132L10.3414 9.71719L10.2307 9.996ZM11.9827 10.692L11.7705 10.4799C11.3355 10.915 10.8296 11.2486 10.2506 11.4817L10.3627 11.76L10.4747 12.0383C11.1277 11.7754 11.7019 11.397 12.1948 10.9041L11.9827 10.692ZM10.3627 11.76L10.2525 11.481C9.68888 11.7034 8.99244 11.82 8.15467 11.82V12.12V12.42C9.0449 12.42 9.82046 12.2966 10.4728 12.039L10.3627 11.76ZM10.1347 10.692H10.4347V8.316H10.1347H9.83467V10.692H10.1347ZM10.1347 8.316L9.92254 8.52813L10.2945 8.90013L10.5067 8.688L10.7188 8.47587L10.3468 8.10387L10.1347 8.316ZM10.5067 8.688V8.388H8.22667V8.688V8.988H10.5067V8.688ZM8.22667 8.688H8.52667V7.272H8.22667H7.92667V8.688H8.22667ZM8.22667 7.272V7.572H11.9827V7.272V6.972H8.22667V7.272ZM11.9827 7.272H11.6827V10.692H11.9827H12.2827V7.272H11.9827ZM11.9827 10.692V10.392H10.1347V10.692V10.992H11.9827V10.692Z" fill="#FF8A00" mask="url(#path-1-outside-1_1_8)"/>
<path d="M15.9901 12.1278C15.3168 12.1278 14.7372 11.9915 14.2514 11.7188C13.7685 11.4432 13.3963 11.054 13.1349 10.5511C12.8736 10.0455 12.7429 9.44744 12.7429 8.7571C12.7429 8.08381 12.8736 7.4929 13.1349 6.98438C13.3963 6.47585 13.7642 6.07955 14.2386 5.79545C14.7159 5.51136 15.2756 5.36932 15.9176 5.36932C16.3494 5.36932 16.7514 5.43892 17.1236 5.57812C17.4986 5.71449 17.8253 5.92045 18.1037 6.19602C18.3849 6.47159 18.6037 6.81818 18.7599 7.2358C18.9162 7.65057 18.9943 8.13636 18.9943 8.69318V9.19176H13.4673V8.06676H17.2855C17.2855 7.8054 17.2287 7.57386 17.1151 7.37216C17.0014 7.17045 16.8437 7.01278 16.642 6.89915C16.4432 6.78267 16.2116 6.72443 15.9474 6.72443C15.6719 6.72443 15.4276 6.78835 15.2145 6.91619C15.0043 7.04119 14.8395 7.21023 14.7202 7.4233C14.6009 7.63352 14.5398 7.8679 14.5369 8.12642V9.19602C14.5369 9.51989 14.5966 9.79972 14.7159 10.0355C14.8381 10.2713 15.0099 10.4531 15.2315 10.581C15.4531 10.7088 15.7159 10.7727 16.0199 10.7727C16.2216 10.7727 16.4062 10.7443 16.5739 10.6875C16.7415 10.6307 16.8849 10.5455 17.0043 10.4318C17.1236 10.3182 17.2145 10.179 17.277 10.0142L18.956 10.125C18.8707 10.5284 18.696 10.8807 18.4318 11.1818C18.1705 11.4801 17.8324 11.7131 17.4176 11.8807C17.0057 12.0455 16.5298 12.1278 15.9901 12.1278ZM23.1364 12.1278C22.4744 12.1278 21.902 11.9872 21.419 11.706C20.9389 11.4219 20.5682 11.027 20.3068 10.5213C20.0455 10.0128 19.9148 9.4233 19.9148 8.75284C19.9148 8.0767 20.0455 7.4858 20.3068 6.98011C20.5682 6.47159 20.9389 6.0767 21.419 5.79545C21.902 5.51136 22.4744 5.36932 23.1364 5.36932C23.7983 5.36932 24.3693 5.51136 24.8494 5.79545C25.3324 6.0767 25.7045 6.47159 25.9659 6.98011C26.2273 7.4858 26.358 8.0767 26.358 8.75284C26.358 9.4233 26.2273 10.0128 25.9659 10.5213C25.7045 11.027 25.3324 11.4219 24.8494 11.706C24.3693 11.9872 23.7983 12.1278 23.1364 12.1278ZM23.1449 10.7216C23.446 10.7216 23.6974 10.6364 23.8991 10.4659C24.1009 10.2926 24.2528 10.0568 24.3551 9.75852C24.4602 9.46023 24.5128 9.12074 24.5128 8.74006C24.5128 8.35938 24.4602 8.01989 24.3551 7.72159C24.2528 7.4233 24.1009 7.1875 23.8991 7.0142C23.6974 6.84091 23.446 6.75426 23.1449 6.75426C22.8409 6.75426 22.5852 6.84091 22.3778 7.0142C22.1733 7.1875 22.0185 7.4233 21.9134 7.72159C21.8111 8.01989 21.7599 8.35938 21.7599 8.74006C21.7599 9.12074 21.8111 9.46023 21.9134 9.75852C22.0185 10.0568 22.1733 10.2926 22.3778 10.4659C22.5852 10.6364 22.8409 10.7216 23.1449 10.7216ZM27.5384 12V5.45455H29.2983V6.59659H29.3665C29.4858 6.19034 29.6861 5.88352 29.9673 5.67614C30.2486 5.46591 30.5724 5.3608 30.9389 5.3608C31.0298 5.3608 31.1278 5.36648 31.233 5.37784C31.3381 5.3892 31.4304 5.40483 31.5099 5.42472V7.03551C31.4247 7.00994 31.3068 6.98722 31.1562 6.96733C31.0057 6.94744 30.8679 6.9375 30.7429 6.9375C30.4759 6.9375 30.2372 6.99574 30.027 7.11222C29.8196 7.22585 29.6548 7.38494 29.5327 7.58949C29.4134 7.79403 29.3537 8.02983 29.3537 8.29688V12H27.5384ZM35.0927 14.5909C34.5046 14.5909 34.0004 14.5099 33.5799 14.348C33.1623 14.1889 32.8299 13.9716 32.5827 13.696C32.3356 13.4205 32.1751 13.1108 32.1012 12.767L33.7802 12.5412C33.8313 12.6719 33.9123 12.794 34.0231 12.9077C34.1339 13.0213 34.2802 13.1122 34.462 13.1804C34.6467 13.2514 34.8711 13.2869 35.1353 13.2869C35.5302 13.2869 35.8555 13.1903 36.1111 12.9972C36.3697 12.8068 36.4989 12.4872 36.4989 12.0384V10.8409H36.4222C36.3427 11.0227 36.2234 11.1946 36.0643 11.3565C35.9052 11.5185 35.7006 11.6506 35.4506 11.7528C35.2006 11.8551 34.9023 11.9062 34.5558 11.9062C34.0643 11.9062 33.6168 11.7926 33.2134 11.5653C32.8129 11.3352 32.4933 10.9844 32.2546 10.5128C32.0188 10.0384 31.9009 9.43892 31.9009 8.71449C31.9009 7.97301 32.0217 7.35369 32.2631 6.85653C32.5046 6.35937 32.8256 5.98722 33.2262 5.74006C33.6296 5.4929 34.0714 5.36932 34.5515 5.36932C34.918 5.36932 35.2248 5.43182 35.4719 5.55682C35.7191 5.67898 35.918 5.83239 36.0685 6.01705C36.2219 6.19886 36.3398 6.37784 36.4222 6.55398H36.4904V5.45455H38.293V12.0639C38.293 12.6207 38.1566 13.0866 37.8839 13.4616C37.6111 13.8366 37.2333 14.1179 36.7504 14.3054C36.2702 14.4957 35.7177 14.5909 35.0927 14.5909ZM35.131 10.5426C35.4236 10.5426 35.6708 10.4702 35.8725 10.3253C36.0771 10.1776 36.2333 9.96733 36.3413 9.6946C36.4521 9.41903 36.5075 9.08949 36.5075 8.70597C36.5075 8.32244 36.4535 7.99006 36.3455 7.70881C36.2376 7.42472 36.0813 7.20455 35.8768 7.0483C35.6722 6.89205 35.4236 6.81392 35.131 6.81392C34.8327 6.81392 34.5813 6.89489 34.3768 7.05682C34.1722 7.21591 34.0174 7.4375 33.9123 7.72159C33.8072 8.00568 33.7546 8.33381 33.7546 8.70597C33.7546 9.08381 33.8072 9.41051 33.9123 9.68608C34.0202 9.95881 34.1751 10.1705 34.3768 10.321C34.5813 10.4687 34.8327 10.5426 35.131 10.5426ZM42.7205 12.1278C42.0472 12.1278 41.4677 11.9915 40.9819 11.7188C40.4989 11.4432 40.1268 11.054 39.8654 10.5511C39.604 10.0455 39.4734 9.44744 39.4734 8.7571C39.4734 8.08381 39.604 7.4929 39.8654 6.98438C40.1268 6.47585 40.4947 6.07955 40.9691 5.79545C41.4464 5.51136 42.006 5.36932 42.6481 5.36932C43.0799 5.36932 43.4819 5.43892 43.854 5.57812C44.229 5.71449 44.5558 5.92045 44.8342 6.19602C45.1154 6.47159 45.3342 6.81818 45.4904 7.2358C45.6467 7.65057 45.7248 8.13636 45.7248 8.69318V9.19176H40.1978V8.06676H44.016C44.016 7.8054 43.9592 7.57386 43.8455 7.37216C43.7319 7.17045 43.5742 7.01278 43.3725 6.89915C43.1736 6.78267 42.9421 6.72443 42.6779 6.72443C42.4023 6.72443 42.158 6.78835 41.945 6.91619C41.7347 7.04119 41.57 7.21023 41.4506 7.4233C41.3313 7.63352 41.2702 7.8679 41.2674 8.12642V9.19602C41.2674 9.51989 41.3271 9.79972 41.4464 10.0355C41.5685 10.2713 41.7404 10.4531 41.962 10.581C42.1836 10.7088 42.4464 10.7727 42.7504 10.7727C42.9521 10.7727 43.1367 10.7443 43.3043 10.6875C43.4719 10.6307 43.6154 10.5455 43.7347 10.4318C43.854 10.3182 43.945 10.179 44.0075 10.0142L45.6864 10.125C45.6012 10.5284 45.4265 10.8807 45.1623 11.1818C44.9009 11.4801 44.5629 11.7131 44.1481 11.8807C43.7361 12.0455 43.2603 12.1278 42.7205 12.1278Z" fill="white"/>
<path d="M50.2752 12L47.7354 3.27273H50.0664L51.3832 8.99148H51.4556L52.9599 3.27273H54.8604L56.3647 9.00426H56.4371L57.7582 3.27273H60.0849L57.5493 12H55.5167L53.9442 6.70739H53.8761L52.3036 12H50.2752ZM63.2894 12.1236C62.6047 12.1236 62.0138 11.9886 61.5167 11.7188C61.0224 11.446 60.6417 11.0582 60.3746 10.5554C60.1104 10.0497 59.9783 9.44886 59.9783 8.75284C59.9783 8.0767 60.1118 7.4858 60.3789 6.98011C60.6459 6.47159 61.0224 6.0767 61.5082 5.79545C61.9939 5.51136 62.5664 5.36932 63.2255 5.36932C63.6914 5.36932 64.1175 5.44176 64.5039 5.58665C64.8903 5.73153 65.2241 5.94602 65.5053 6.23011C65.7866 6.5142 66.0053 6.86506 66.1616 7.28267C66.3178 7.69744 66.3959 8.1733 66.3959 8.71023V9.23011H60.707V8.01989H64.457C64.4542 7.7983 64.4016 7.60085 64.2993 7.42756C64.1971 7.25426 64.0564 7.11932 63.8775 7.02273C63.7013 6.9233 63.4982 6.87358 63.2681 6.87358C63.0351 6.87358 62.8263 6.92614 62.6417 7.03125C62.457 7.13352 62.3107 7.27415 62.2028 7.45312C62.0948 7.62926 62.038 7.82955 62.0323 8.05398V9.28551C62.0323 9.55256 62.0849 9.78693 62.19 9.98864C62.2951 10.1875 62.4442 10.3423 62.6374 10.4531C62.8306 10.5639 63.0607 10.6193 63.3278 10.6193C63.5124 10.6193 63.68 10.5937 63.8306 10.5426C63.9812 10.4915 64.1104 10.4162 64.2184 10.3168C64.3263 10.2173 64.4073 10.0952 64.4613 9.95028L66.3746 10.0057C66.2951 10.4347 66.1204 10.8082 65.8505 11.1264C65.5834 11.4418 65.2326 11.6875 64.7979 11.8636C64.3633 12.0369 63.8604 12.1236 63.2894 12.1236ZM67.4602 12V3.27273H69.544V6.57528H69.5866C69.6719 6.37642 69.7926 6.18466 69.9488 6C70.1079 5.81534 70.3096 5.66477 70.554 5.5483C70.8011 5.42898 71.0966 5.36932 71.4403 5.36932C71.8949 5.36932 72.3196 5.48864 72.7145 5.72727C73.1122 5.96591 73.4332 6.33381 73.6775 6.83097C73.9219 7.32812 74.044 7.96165 74.044 8.73153C74.044 9.47301 73.9261 10.0938 73.6903 10.5938C73.4574 11.0938 73.142 11.4688 72.7443 11.7188C72.3494 11.9688 71.9105 12.0938 71.4275 12.0938C71.098 12.0938 70.8125 12.0398 70.571 11.9318C70.3295 11.8239 70.1264 11.6818 69.9616 11.5057C69.7997 11.3295 69.6747 11.1406 69.5866 10.9389H69.5227V12H67.4602ZM69.5014 8.72727C69.5014 9.07955 69.5483 9.38636 69.642 9.64773C69.7386 9.90909 69.8764 10.1122 70.0554 10.2571C70.2372 10.3991 70.4545 10.4702 70.7074 10.4702C70.9631 10.4702 71.1804 10.3991 71.3594 10.2571C71.5383 10.1122 71.6733 9.90909 71.7642 9.64773C71.8579 9.38636 71.9048 9.07955 71.9048 8.72727C71.9048 8.375 71.8579 8.0696 71.7642 7.81108C71.6733 7.55256 71.5383 7.35227 71.3594 7.21023C71.1832 7.06818 70.9659 6.99716 70.7074 6.99716C70.4517 6.99716 70.2344 7.06676 70.0554 7.20597C69.8764 7.34517 69.7386 7.54403 69.642 7.80256C69.5483 8.06108 69.5014 8.36932 69.5014 8.72727Z" fill="#FF8A00"/>
<g filter="url(#filter0_d_1_8)">
<path d="M6.46449 23H4V15.7273H6.5142C7.23627 15.7273 7.85653 15.8729 8.375 16.1641C8.89583 16.4529 9.29593 16.8684 9.57528 17.4105C9.85464 17.9527 9.99432 18.6013 9.99432 19.3565C9.99432 20.1141 9.85346 20.7652 9.57173 21.3097C9.29238 21.8542 8.88873 22.272 8.36079 22.5632C7.83523 22.8544 7.20312 23 6.46449 23ZM5.31747 21.8601H6.40057C6.9072 21.8601 7.32978 21.7678 7.66832 21.5831C8.00686 21.3961 8.26136 21.1179 8.43182 20.7486C8.60227 20.3769 8.6875 19.9129 8.6875 19.3565C8.6875 18.8002 8.60227 18.3385 8.43182 17.9716C8.26136 17.6023 8.00923 17.3265 7.67542 17.1442C7.34399 16.9595 6.93205 16.8672 6.43963 16.8672H5.31747V21.8601ZM13.604 23.1065C13.0572 23.1065 12.5849 22.9929 12.1871 22.7656C11.7918 22.536 11.4876 22.2116 11.2745 21.7926C11.0614 21.3712 10.9549 20.8752 10.9549 20.3047C10.9549 19.7436 11.0614 19.2512 11.2745 18.8274C11.4899 18.4013 11.7906 18.0698 12.1765 17.8331C12.5624 17.594 13.0157 17.4744 13.5366 17.4744C13.8727 17.4744 14.19 17.5289 14.4883 17.6378C14.7889 17.7443 15.0541 17.91 15.2837 18.1349C15.5157 18.3598 15.698 18.6463 15.8306 18.9943C15.9632 19.34 16.0295 19.7519 16.0295 20.2301V20.6243H11.5586V19.7578H14.7972C14.7949 19.5116 14.7416 19.2926 14.6374 19.1009C14.5333 18.9067 14.3877 18.754 14.2006 18.6428C14.016 18.5315 13.8005 18.4759 13.5543 18.4759C13.2915 18.4759 13.0607 18.5398 12.8619 18.6676C12.663 18.7931 12.5079 18.9588 12.3967 19.1648C12.2878 19.3684 12.2321 19.5921 12.2298 19.8359V20.5923C12.2298 20.9096 12.2878 21.1818 12.4038 21.4091C12.5198 21.634 12.6819 21.8068 12.8903 21.9276C13.0986 22.0459 13.3424 22.1051 13.6218 22.1051C13.8088 22.1051 13.9781 22.0791 14.1296 22.027C14.2811 21.9725 14.4125 21.8932 14.5238 21.7891C14.6351 21.6849 14.7191 21.5559 14.7759 21.402L15.9762 21.5369C15.9004 21.8542 15.756 22.1312 15.543 22.3679C15.3323 22.6023 15.0624 22.7846 14.7333 22.9148C14.4042 23.0426 14.0278 23.1065 13.604 23.1065ZM21.4281 18.9872L20.2562 19.1151C20.2231 18.9967 20.1651 18.8854 20.0822 18.7812C20.0017 18.6771 19.8928 18.593 19.7555 18.5291C19.6182 18.4652 19.4501 18.4332 19.2512 18.4332C18.9837 18.4332 18.7588 18.4912 18.5765 18.6072C18.3966 18.7232 18.3078 18.8736 18.3102 19.0582C18.3078 19.2169 18.3658 19.3459 18.4842 19.4453C18.6049 19.5447 18.8038 19.6264 19.0808 19.6903L20.0112 19.8892C20.5273 20.0005 20.9108 20.1768 21.1618 20.4183C21.4151 20.6598 21.5429 20.9759 21.5453 21.3665C21.5429 21.7098 21.4423 22.0128 21.2434 22.2756C21.0469 22.536 20.7735 22.7396 20.4231 22.8864C20.0727 23.0331 19.6703 23.1065 19.2157 23.1065C18.5481 23.1065 18.0107 22.9669 17.6035 22.6875C17.1963 22.4058 16.9537 22.014 16.8755 21.5121L18.1291 21.3913C18.1859 21.6375 18.3066 21.8234 18.4913 21.9489C18.676 22.0743 18.9163 22.1371 19.2122 22.1371C19.5176 22.1371 19.7626 22.0743 19.9473 21.9489C20.1343 21.8234 20.2278 21.6683 20.2278 21.4837C20.2278 21.3274 20.1674 21.1984 20.0467 21.0966C19.9283 20.9948 19.7437 20.9167 19.4927 20.8622L18.5623 20.6669C18.0391 20.558 17.652 20.3745 17.4011 20.1165C17.1502 19.8561 17.0259 19.527 17.0282 19.1293C17.0259 18.7931 17.117 18.5019 17.3017 18.2557C17.4887 18.0071 17.7479 17.8153 18.0794 17.6804C18.4132 17.5431 18.7979 17.4744 19.2335 17.4744C19.8727 17.4744 20.3758 17.6106 20.7427 17.8828C21.112 18.1551 21.3405 18.5232 21.4281 18.9872ZM22.6053 23V17.5455H23.8908V23H22.6053ZM23.2516 16.7713C23.048 16.7713 22.8728 16.7038 22.726 16.5689C22.5792 16.4316 22.5059 16.267 22.5059 16.0753C22.5059 15.8812 22.5792 15.7166 22.726 15.5817C22.8728 15.4444 23.048 15.3757 23.2516 15.3757C23.4576 15.3757 23.6328 15.4444 23.7772 15.5817C23.9239 15.7166 23.9973 15.8812 23.9973 16.0753C23.9973 16.267 23.9239 16.4316 23.7772 16.5689C23.6328 16.7038 23.4576 16.7713 23.2516 16.7713ZM27.5849 25.1591C27.1232 25.1591 26.7267 25.0964 26.3952 24.9709C26.0638 24.8478 25.7975 24.6821 25.5962 24.4737C25.395 24.2654 25.2553 24.0346 25.1772 23.7812L26.3349 23.5007C26.387 23.6072 26.4627 23.7126 26.5621 23.8168C26.6616 23.9233 26.7953 24.0109 26.9634 24.0795C27.1339 24.1506 27.3481 24.1861 27.6062 24.1861C27.9708 24.1861 28.2726 24.0973 28.5117 23.9197C28.7508 23.7446 28.8704 23.4557 28.8704 23.0533V22.0199H28.8065C28.7402 22.1525 28.6431 22.2886 28.5153 22.4283C28.3898 22.5679 28.2229 22.6851 28.0146 22.7798C27.8086 22.8745 27.5494 22.9219 27.2369 22.9219C26.8178 22.9219 26.4379 22.8236 26.0969 22.6271C25.7584 22.4283 25.4885 22.1323 25.2873 21.7393C25.0884 21.344 24.989 20.8492 24.989 20.255C24.989 19.656 25.0884 19.1506 25.2873 18.7386C25.4885 18.3243 25.7596 18.0107 26.1005 17.7976C26.4414 17.5821 26.8214 17.4744 27.2404 17.4744C27.56 17.4744 27.8228 17.5289 28.0288 17.6378C28.2371 17.7443 28.4028 17.8733 28.5259 18.0249C28.649 18.174 28.7425 18.3149 28.8065 18.4474H28.8775V17.5455H30.1452V23.0888C30.1452 23.5552 30.034 23.9411 29.8114 24.2464C29.5889 24.5518 29.2847 24.7803 28.8988 24.9318C28.5129 25.0833 28.0749 25.1591 27.5849 25.1591ZM27.5955 21.9134C27.8678 21.9134 28.0998 21.8471 28.2915 21.7145C28.4833 21.5819 28.6289 21.3913 28.7283 21.1428C28.8278 20.8942 28.8775 20.5959 28.8775 20.2479C28.8775 19.9046 28.8278 19.6039 28.7283 19.3459C28.6313 19.0878 28.4869 18.8878 28.2951 18.7457C28.1057 18.6013 27.8725 18.5291 27.5955 18.5291C27.3091 18.5291 27.07 18.6037 26.8782 18.7528C26.6864 18.902 26.542 19.1068 26.445 19.3672C26.3479 19.6252 26.2994 19.9188 26.2994 20.2479C26.2994 20.5817 26.3479 20.8741 26.445 21.125C26.5444 21.3736 26.69 21.5677 26.8817 21.7074C27.0759 21.8447 27.3138 21.9134 27.5955 21.9134ZM32.7482 19.804V23H31.4627V17.5455H32.6914V18.4723H32.7553C32.8808 18.1669 33.0808 17.9242 33.3555 17.7443C33.6325 17.5644 33.9745 17.4744 34.3817 17.4744C34.7582 17.4744 35.0861 17.5549 35.3654 17.7159C35.6471 17.8769 35.8649 18.1101 36.0188 18.4155C36.1751 18.7209 36.252 19.0914 36.2496 19.527V23H34.9641V19.7259C34.9641 19.3613 34.8694 19.076 34.68 18.87C34.493 18.6641 34.2338 18.5611 33.9023 18.5611C33.6774 18.5611 33.4774 18.6108 33.3022 18.7102C33.1294 18.8073 32.9933 18.9482 32.8938 19.1328C32.7968 19.3175 32.7482 19.5412 32.7482 19.804Z" fill="white"/>
</g>
<defs>
<filter id="filter0_d_1_8" x="0" y="15.3757" width="40.2532" height="17.7834" filterUnits="userSpaceOnUse" color-interpolation-filters="sRGB">
<feFlood flood-opacity="0" result="BackgroundImageFix"/>
<feColorMatrix in="SourceAlpha" type="matrix" values="0 0 0 0 0 0 0 0 0 0 0 0 0 0 0 0 0 0 127 0" result="hardAlpha"/>
<feOffset dy="4"/>
<feGaussianBlur stdDeviation="2"/>
<feComposite in2="hardAlpha" operator="out"/>
<feColorMatrix type="matrix" values="0 0 0 0 0 0 0 0 0 0 0 0 0 0 0 0 0 0 0.25 0"/>
<feBlend mode="normal" in2="BackgroundImageFix" result="effect1_dropShadow_1_8"/>
<feBlend mode="normal" in="SourceGraphic" in2="effect1_dropShadow_1_8" result="shape"/>
</filter>
</defs>
</svg>
