<svg width="80" height="34" viewBox="0 0 80 34" fill="none" xmlns="http://www.w3.org/2000/svg">
<path d="M8.2399 12.12C7.3039 12.12 6.4999 11.936 5.8279 11.568C5.1559 11.2 4.6359 10.684 4.2679 10.02C3.9079 9.356 3.7279 8.58 3.7279 7.692C3.7279 6.812 3.9119 6.04 4.2799 5.376C4.6479 4.704 5.1559 4.18 5.8039 3.804C6.4599 3.428 7.2199 3.24 8.0839 3.24C8.7959 3.24 9.4319 3.368 9.9919 3.624C10.5599 3.88 11.0159 4.232 11.3599 4.68C11.7119 5.12 11.9199 5.632 11.9839 6.216H10.1359C10.0559 5.744 9.8319 5.376 9.4639 5.112C9.1039 4.84 8.6519 4.704 8.1079 4.704C7.6039 4.704 7.1639 4.824 6.7879 5.064C6.4119 5.296 6.1199 5.632 5.9119 6.072C5.7039 6.512 5.5999 7.04 5.5999 7.656C5.5999 8.296 5.7039 8.844 5.9119 9.3C6.1199 9.748 6.4239 10.092 6.8239 10.332C7.2319 10.564 7.7319 10.68 8.3239 10.68C8.8039 10.68 9.2119 10.62 9.5479 10.5C9.8839 10.38 10.1399 10.212 10.3159 9.996L12.0679 10.692C11.6039 11.156 11.0639 11.512 10.4479 11.76C9.8399 12 9.1039 12.12 8.2399 12.12ZM10.2199 10.692V8.316L10.5919 8.688H8.3119V7.272H12.0679V10.692H10.2199Z" fill="#FF8A00"/>
<path d="M16.2126 12.1278C15.5393 12.1278 14.9598 11.9915 14.474 11.7188C13.991 11.4432 13.6189 11.054 13.3575 10.5511C13.0961 10.0455 12.9655 9.44744 12.9655 8.7571C12.9655 8.08381 13.0961 7.4929 13.3575 6.98438C13.6189 6.47585 13.9868 6.07955 14.4612 5.79545C14.9385 5.51136 15.4981 5.36932 16.1402 5.36932C16.572 5.36932 16.974 5.43892 17.3461 5.57812C17.7211 5.71449 18.0479 5.92045 18.3263 6.19602C18.6075 6.47159 18.8263 6.81818 18.9825 7.2358C19.1388 7.65057 19.2169 8.13636 19.2169 8.69318V9.19176H13.6899V8.06676H17.5081C17.5081 7.8054 17.4513 7.57386 17.3376 7.37216C17.224 7.17045 17.0663 7.01278 16.8646 6.89915C16.6658 6.78267 16.4342 6.72443 16.17 6.72443C15.8944 6.72443 15.6501 6.78835 15.4371 6.91619C15.2268 7.04119 15.0621 7.21023 14.9427 7.4233C14.8234 7.63352 14.7623 7.8679 14.7595 8.12642V9.19602C14.7595 9.51989 14.8192 9.79972 14.9385 10.0355C15.0606 10.2713 15.2325 10.4531 15.4541 10.581C15.6757 10.7088 15.9385 10.7727 16.2425 10.7727C16.4442 10.7727 16.6288 10.7443 16.7964 10.6875C16.964 10.6307 17.1075 10.5455 17.2268 10.4318C17.3461 10.3182 17.4371 10.179 17.4996 10.0142L19.1785 10.125C19.0933 10.5284 18.9186 10.8807 18.6544 11.1818C18.393 11.4801 18.055 11.7131 17.6402 11.8807C17.2283 12.0455 16.7524 12.1278 16.2126 12.1278ZM23.3589 12.1278C22.697 12.1278 22.1246 11.9872 21.6416 11.706C21.1615 11.4219 20.7908 11.027 20.5294 10.5213C20.268 10.0128 20.1373 9.4233 20.1373 8.75284C20.1373 8.0767 20.268 7.4858 20.5294 6.98011C20.7908 6.47159 21.1615 6.0767 21.6416 5.79545C22.1246 5.51136 22.697 5.36932 23.3589 5.36932C24.0209 5.36932 24.5919 5.51136 25.072 5.79545C25.555 6.0767 25.9271 6.47159 26.1885 6.98011C26.4498 7.4858 26.5805 8.0767 26.5805 8.75284C26.5805 9.4233 26.4498 10.0128 26.1885 10.5213C25.9271 11.027 25.555 11.4219 25.072 11.706C24.5919 11.9872 24.0209 12.1278 23.3589 12.1278ZM23.3675 10.7216C23.6686 10.7216 23.92 10.6364 24.1217 10.4659C24.3234 10.2926 24.4754 10.0568 24.5777 9.75852C24.6828 9.46023 24.7354 9.12074 24.7354 8.74006C24.7354 8.35938 24.6828 8.01989 24.5777 7.72159C24.4754 7.4233 24.3234 7.1875 24.1217 7.0142C23.92 6.84091 23.6686 6.75426 23.3675 6.75426C23.0635 6.75426 22.8078 6.84091 22.6004 7.0142C22.3959 7.1875 22.241 7.4233 22.1359 7.72159C22.0336 8.01989 21.9825 8.35938 21.9825 8.74006C21.9825 9.12074 22.0336 9.46023 22.1359 9.75852C22.241 10.0568 22.3959 10.2926 22.6004 10.4659C22.8078 10.6364 23.0635 10.7216 23.3675 10.7216ZM27.7609 12V5.45455H29.5209V6.59659H29.589C29.7084 6.19034 29.9086 5.88352 30.1899 5.67614C30.4711 5.46591 30.795 5.3608 31.1615 5.3608C31.2524 5.3608 31.3504 5.36648 31.4555 5.37784C31.5606 5.3892 31.653 5.40483 31.7325 5.42472V7.03551C31.6473 7.00994 31.5294 6.98722 31.3788 6.96733C31.2283 6.94744 31.0905 6.9375 30.9655 6.9375C30.6984 6.9375 30.4598 6.99574 30.2496 7.11222C30.0422 7.22585 29.8774 7.38494 29.7552 7.58949C29.6359 7.79403 29.5763 8.02983 29.5763 8.29688V12H27.7609ZM35.3153 14.5909C34.7272 14.5909 34.2229 14.5099 33.8025 14.348C33.3849 14.1889 33.0525 13.9716 32.8053 13.696C32.5582 13.4205 32.3976 13.1108 32.3238 12.767L34.0028 12.5412C34.0539 12.6719 34.1349 12.794 34.2457 12.9077C34.3564 13.0213 34.5028 13.1122 34.6846 13.1804C34.8692 13.2514 35.0937 13.2869 35.3579 13.2869C35.7528 13.2869 36.078 13.1903 36.3337 12.9972C36.5922 12.8068 36.7215 12.4872 36.7215 12.0384V10.8409H36.6448C36.5653 11.0227 36.4459 11.1946 36.2868 11.3565C36.1278 11.5185 35.9232 11.6506 35.6732 11.7528C35.4232 11.8551 35.1249 11.9062 34.7783 11.9062C34.2868 11.9062 33.8394 11.7926 33.436 11.5653C33.0354 11.3352 32.7158 10.9844 32.4772 10.5128C32.2414 10.0384 32.1235 9.43892 32.1235 8.71449C32.1235 7.97301 32.2442 7.35369 32.4857 6.85653C32.7272 6.35937 33.0482 5.98722 33.4488 5.74006C33.8522 5.4929 34.2939 5.36932 34.7741 5.36932C35.1405 5.36932 35.4474 5.43182 35.6945 5.55682C35.9417 5.67898 36.1405 5.83239 36.2911 6.01705C36.4445 6.19886 36.5624 6.37784 36.6448 6.55398H36.713V5.45455H38.5155V12.0639C38.5155 12.6207 38.3792 13.0866 38.1064 13.4616C37.8337 13.8366 37.4559 14.1179 36.9729 14.3054C36.4928 14.4957 35.9403 14.5909 35.3153 14.5909ZM35.3536 10.5426C35.6462 10.5426 35.8934 10.4702 36.0951 10.3253C36.2996 10.1776 36.4559 9.96733 36.5638 9.6946C36.6746 9.41903 36.73 9.08949 36.73 8.70597C36.73 8.32244 36.6761 7.99006 36.5681 7.70881C36.4601 7.42472 36.3039 7.20455 36.0993 7.0483C35.8948 6.89205 35.6462 6.81392 35.3536 6.81392C35.0553 6.81392 34.8039 6.89489 34.5993 7.05682C34.3948 7.21591 34.24 7.4375 34.1349 7.72159C34.0297 8.00568 33.9772 8.33381 33.9772 8.70597C33.9772 9.08381 34.0297 9.41051 34.1349 9.68608C34.2428 9.95881 34.3976 10.1705 34.5993 10.321C34.8039 10.4687 35.0553 10.5426 35.3536 10.5426ZM42.9431 12.1278C42.2698 12.1278 41.6903 11.9915 41.2045 11.7188C40.7215 11.4432 40.3493 11.054 40.088 10.5511C39.8266 10.0455 39.6959 9.44744 39.6959 8.7571C39.6959 8.08381 39.8266 7.4929 40.088 6.98438C40.3493 6.47585 40.7172 6.07955 41.1917 5.79545C41.6689 5.51136 42.2286 5.36932 42.8707 5.36932C43.3025 5.36932 43.7045 5.43892 44.0766 5.57812C44.4516 5.71449 44.7783 5.92045 45.0567 6.19602C45.338 6.47159 45.5567 6.81818 45.713 7.2358C45.8692 7.65057 45.9474 8.13636 45.9474 8.69318V9.19176H40.4204V8.06676H44.2386C44.2386 7.8054 44.1817 7.57386 44.0681 7.37216C43.9545 7.17045 43.7968 7.01278 43.5951 6.89915C43.3962 6.78267 43.1647 6.72443 42.9005 6.72443C42.6249 6.72443 42.3806 6.78835 42.1675 6.91619C41.9573 7.04119 41.7925 7.21023 41.6732 7.4233C41.5539 7.63352 41.4928 7.8679 41.49 8.12642V9.19602C41.49 9.51989 41.5496 9.79972 41.6689 10.0355C41.7911 10.2713 41.963 10.4531 42.1846 10.581C42.4062 10.7088 42.6689 10.7727 42.9729 10.7727C43.1746 10.7727 43.3593 10.7443 43.5269 10.6875C43.6945 10.6307 43.838 10.5455 43.9573 10.4318C44.0766 10.3182 44.1675 10.179 44.23 10.0142L45.909 10.125C45.8238 10.5284 45.6491 10.8807 45.3849 11.1818C45.1235 11.4801 44.7854 11.7131 44.3707 11.8807C43.9587 12.0455 43.4829 12.1278 42.9431 12.1278Z" fill="white"/>
<path d="M51.9378 12L49.398 3.27273H51.729L53.0457 8.99148H53.1182L54.6224 3.27273H56.523L58.0273 9.00426H58.0997L59.4207 3.27273H61.7474L59.2119 12H57.1792L55.6068 6.70739H55.5386L53.9662 12H51.9378ZM64.952 12.1236C64.2673 12.1236 63.6764 11.9886 63.1792 11.7188C62.6849 11.446 62.3042 11.0582 62.0372 10.5554C61.773 10.0497 61.6409 9.44886 61.6409 8.75284C61.6409 8.0767 61.7744 7.4858 62.0415 6.98011C62.3085 6.47159 62.6849 6.0767 63.1707 5.79545C63.6565 5.51136 64.229 5.36932 64.8881 5.36932C65.354 5.36932 65.7801 5.44176 66.1665 5.58665C66.5528 5.73153 66.8866 5.94602 67.1679 6.23011C67.4491 6.5142 67.6679 6.86506 67.8241 7.28267C67.9804 7.69744 68.0585 8.1733 68.0585 8.71023V9.23011H62.3696V8.01989H66.1196C66.1167 7.7983 66.0642 7.60085 65.9619 7.42756C65.8596 7.25426 65.719 7.11932 65.54 7.02273C65.3639 6.9233 65.1608 6.87358 64.9307 6.87358C64.6977 6.87358 64.4889 6.92614 64.3042 7.03125C64.1196 7.13352 63.9733 7.27415 63.8653 7.45312C63.7574 7.62926 63.7006 7.82955 63.6949 8.05398V9.28551C63.6949 9.55256 63.7474 9.78693 63.8525 9.98864C63.9577 10.1875 64.1068 10.3423 64.3 10.4531C64.4932 10.5639 64.7233 10.6193 64.9903 10.6193C65.175 10.6193 65.3426 10.5937 65.4932 10.5426C65.6437 10.4915 65.773 10.4162 65.881 10.3168C65.9889 10.2173 66.0699 10.0952 66.1238 9.95028L68.0372 10.0057C67.9577 10.4347 67.7829 10.8082 67.5131 11.1264C67.246 11.4418 66.8952 11.6875 66.4605 11.8636C66.0258 12.0369 65.523 12.1236 64.952 12.1236ZM69.1228 12V3.27273H71.2066V6.57528H71.2492C71.3344 6.37642 71.4552 6.18466 71.6114 6C71.7705 5.81534 71.9722 5.66477 72.2165 5.5483C72.4637 5.42898 72.7591 5.36932 73.1029 5.36932C73.5574 5.36932 73.9822 5.48864 74.377 5.72727C74.7748 5.96591 75.0958 6.33381 75.3401 6.83097C75.5844 7.32812 75.7066 7.96165 75.7066 8.73153C75.7066 9.47301 75.5887 10.0938 75.3529 10.5938C75.1199 11.0938 74.8046 11.4688 74.4069 11.7188C74.012 11.9688 73.5731 12.0938 73.0901 12.0938C72.7606 12.0938 72.4751 12.0398 72.2336 11.9318C71.9921 11.8239 71.789 11.6818 71.6242 11.5057C71.4623 11.3295 71.3373 11.1406 71.2492 10.9389H71.1853V12H69.1228ZM71.164 8.72727C71.164 9.07955 71.2109 9.38636 71.3046 9.64773C71.4012 9.90909 71.539 10.1122 71.718 10.2571C71.8998 10.3991 72.1171 10.4702 72.3699 10.4702C72.6256 10.4702 72.843 10.3991 73.0219 10.2571C73.2009 10.1122 73.3359 9.90909 73.4268 9.64773C73.5205 9.38636 73.5674 9.07955 73.5674 8.72727C73.5674 8.375 73.5205 8.0696 73.4268 7.81108C73.3359 7.55256 73.2009 7.35227 73.0219 7.21023C72.8458 7.06818 72.6285 6.99716 72.3699 6.99716C72.1143 6.99716 71.8969 7.06676 71.718 7.20597C71.539 7.34517 71.4012 7.54403 71.3046 7.80256C71.2109 8.06108 71.164 8.36932 71.164 8.72727Z" fill="#FF8A00"/>
<path d="M3.3679 23.65C3.1746 23.65 3.0179 23.8067 3.0179 24C3.0179 24.1933 3.1746 24.35 3.3679 24.35V24V23.65ZM40.6154 24.2475C40.7521 24.1108 40.7521 23.8892 40.6154 23.7525L38.388 21.5251C38.2513 21.3884 38.0297 21.3884 37.893 21.5251C37.7563 21.6618 37.7563 21.8834 37.893 22.0201L39.8729 24L37.893 25.9799C37.7563 26.1166 37.7563 26.3382 37.893 26.4749C38.0297 26.6116 38.2513 26.6116 38.388 26.4749L40.6154 24.2475ZM3.3679 24V24.35H40.3679V24V23.65H3.3679V24Z" fill="#FF8A00"/>
<g filter="url(#filter0_d_1_8)">
<path d="M6.57812 23H4V15.7273H6.59943C7.33097 15.7273 7.9607 15.8729 8.48864 16.1641C9.01657 16.4529 9.42258 16.8684 9.70668 17.4105C9.99313 17.9527 10.1364 18.6013 10.1364 19.3565C10.1364 20.1141 9.99313 20.7652 9.70668 21.3097C9.42258 21.8542 9.0142 22.272 8.48153 22.5632C7.95123 22.8544 7.31676 23 6.57812 23ZM5.53764 21.6825H6.5142C6.96875 21.6825 7.35109 21.602 7.66122 21.4411C7.97372 21.2777 8.2081 21.0256 8.36435 20.6847C8.52296 20.3414 8.60227 19.8987 8.60227 19.3565C8.60227 18.8191 8.52296 18.38 8.36435 18.0391C8.2081 17.6982 7.9749 17.4472 7.66477 17.2862C7.35464 17.1252 6.9723 17.0447 6.51776 17.0447H5.53764V21.6825ZM13.7328 23.1065C13.1717 23.1065 12.6887 22.9929 12.2839 22.7656C11.8815 22.536 11.5713 22.2116 11.3535 21.7926C11.1357 21.3712 11.0268 20.8729 11.0268 20.2976C11.0268 19.7365 11.1357 19.2441 11.3535 18.8203C11.5713 18.3965 11.8779 18.0663 12.2733 17.8295C12.671 17.5928 13.1374 17.4744 13.6724 17.4744C14.0323 17.4744 14.3672 17.5324 14.6774 17.6484C14.9899 17.7621 15.2621 17.9337 15.4941 18.1634C15.7285 18.393 15.9108 18.6818 16.041 19.0298C16.1712 19.3755 16.2363 19.7803 16.2363 20.2443V20.6598H11.6305V19.7223H14.8123C14.8123 19.5045 14.765 19.3116 14.6703 19.1435C14.5756 18.9754 14.4442 18.844 14.2761 18.7493C14.1104 18.6522 13.9174 18.6037 13.6973 18.6037C13.4676 18.6037 13.264 18.657 13.0865 18.7635C12.9113 18.8677 12.774 19.0085 12.6745 19.1861C12.5751 19.3613 12.5242 19.5566 12.5218 19.772V20.6634C12.5218 20.9332 12.5716 21.1664 12.671 21.3629C12.7728 21.5594 12.916 21.7109 13.1007 21.8175C13.2853 21.924 13.5043 21.9773 13.7576 21.9773C13.9257 21.9773 14.0796 21.9536 14.2193 21.9062C14.359 21.8589 14.4785 21.7879 14.5779 21.6932C14.6774 21.5985 14.7531 21.4825 14.8052 21.3452L16.2044 21.4375C16.1333 21.7737 15.9877 22.0672 15.7676 22.3182C15.5498 22.5668 15.2681 22.7609 14.9224 22.9006C14.5791 23.0379 14.1826 23.1065 13.7328 23.1065ZM21.7619 19.1009L20.377 19.1861C20.3533 19.0677 20.3024 18.9612 20.2243 18.8665C20.1461 18.7694 20.0431 18.6925 19.9153 18.6357C19.7898 18.5765 19.6395 18.5469 19.4643 18.5469C19.2299 18.5469 19.0323 18.5966 18.8713 18.696C18.7103 18.7931 18.6298 18.9233 18.6298 19.0866C18.6298 19.2169 18.6819 19.3269 18.786 19.4169C18.8902 19.5069 19.069 19.5791 19.3223 19.6335L20.3095 19.8324C20.8398 19.9413 21.2351 20.1165 21.4956 20.358C21.756 20.5994 21.8862 20.9167 21.8862 21.3097C21.8862 21.6671 21.7808 21.9808 21.5701 22.2507C21.3618 22.5206 21.0753 22.7313 20.7108 22.8828C20.3485 23.032 19.9307 23.1065 19.4572 23.1065C18.7351 23.1065 18.1599 22.9562 17.7314 22.6555C17.3052 22.3525 17.0555 21.9406 16.9821 21.4197L18.47 21.3416C18.515 21.5618 18.6239 21.7299 18.7967 21.8459C18.9695 21.9595 19.1909 22.0163 19.4608 22.0163C19.7259 22.0163 19.939 21.9654 20.1 21.8636C20.2633 21.7595 20.3462 21.6257 20.3485 21.4624C20.3462 21.325 20.2882 21.2126 20.1745 21.125C20.0609 21.035 19.8857 20.9664 19.649 20.919L18.7044 20.7308C18.1717 20.6243 17.7752 20.4396 17.5147 20.1768C17.2567 19.9141 17.1277 19.5791 17.1277 19.1719C17.1277 18.8215 17.2224 18.5196 17.4118 18.2663C17.6035 18.013 17.8722 17.8177 18.2179 17.6804C18.5659 17.5431 18.9731 17.4744 19.4395 17.4744C20.1284 17.4744 20.6705 17.62 21.0659 17.9112C21.4636 18.2024 21.6956 18.599 21.7619 19.1009ZM22.8388 23V17.5455H24.3516V23H22.8388ZM23.5987 16.8423C23.3738 16.8423 23.1809 16.7678 23.0199 16.6186C22.8613 16.4671 22.782 16.286 22.782 16.0753C22.782 15.867 22.8613 15.6882 23.0199 15.5391C23.1809 15.3875 23.3738 15.3118 23.5987 15.3118C23.8236 15.3118 24.0154 15.3875 24.174 15.5391C24.335 15.6882 24.4155 15.867 24.4155 16.0753C24.4155 16.286 24.335 16.4671 24.174 16.6186C24.0154 16.7678 23.8236 16.8423 23.5987 16.8423ZM28.0208 25.1591C27.5307 25.1591 27.1105 25.0916 26.7601 24.9567C26.4121 24.8241 26.1351 24.643 25.9292 24.4134C25.7232 24.1837 25.5894 23.9257 25.5279 23.6392L26.927 23.451C26.9696 23.5599 27.0371 23.6617 27.1294 23.7564C27.2218 23.8511 27.3437 23.9268 27.4952 23.9837C27.6491 24.0429 27.8361 24.0724 28.0563 24.0724C28.3854 24.0724 28.6564 23.992 28.8695 23.831C29.0849 23.6723 29.1926 23.406 29.1926 23.032V22.0341H29.1287C29.0624 22.1856 28.963 22.3288 28.8304 22.4638C28.6979 22.5987 28.5274 22.7088 28.3191 22.794C28.1107 22.8793 27.8622 22.9219 27.5733 22.9219C27.1638 22.9219 26.7909 22.8272 26.4547 22.6378C26.1209 22.446 25.8546 22.1536 25.6557 21.7607C25.4592 21.3653 25.361 20.8658 25.361 20.2621C25.361 19.6442 25.4616 19.1281 25.6628 18.7138C25.8641 18.2995 26.1316 17.9893 26.4654 17.7834C26.8016 17.5774 27.1697 17.4744 27.5698 17.4744C27.8752 17.4744 28.1309 17.5265 28.3368 17.6307C28.5428 17.7325 28.7085 17.8603 28.834 18.0142C28.9618 18.1657 29.0601 18.3149 29.1287 18.4616H29.1855V17.5455H30.6877V23.0533C30.6877 23.5173 30.574 23.9055 30.3468 24.218C30.1195 24.5305 29.8046 24.7649 29.4022 24.9212C29.0021 25.0798 28.5416 25.1591 28.0208 25.1591ZM28.0527 21.7855C28.2966 21.7855 28.5025 21.7251 28.6706 21.6044C28.8411 21.4813 28.9713 21.3061 29.0613 21.0788C29.1536 20.8492 29.1998 20.5746 29.1998 20.255C29.1998 19.9354 29.1548 19.6584 29.0648 19.424C28.9748 19.1873 28.8446 19.0038 28.6742 18.8736C28.5037 18.7434 28.2966 18.6783 28.0527 18.6783C27.8042 18.6783 27.5946 18.7457 27.4242 18.8807C27.2537 19.0133 27.1247 19.1979 27.0371 19.4347C26.9495 19.6714 26.9057 19.9448 26.9057 20.255C26.9057 20.5698 26.9495 20.8421 27.0371 21.0717C27.1271 21.299 27.2561 21.4754 27.4242 21.6009C27.5946 21.724 27.8042 21.7855 28.0527 21.7855ZM33.4043 19.8466V23H31.8915V17.5455H33.3333V18.5078H33.3972C33.5179 18.1906 33.7203 17.9396 34.0044 17.755C34.2885 17.5679 34.633 17.4744 35.0378 17.4744C35.4166 17.4744 35.7469 17.5573 36.0286 17.723C36.3103 17.8887 36.5293 18.1255 36.6855 18.4332C36.8418 18.7386 36.9199 19.1032 36.9199 19.527V23H35.4071V19.7969C35.4095 19.4631 35.3243 19.2027 35.1515 19.0156C34.9786 18.8262 34.7407 18.7315 34.4377 18.7315C34.2341 18.7315 34.0542 18.7753 33.8979 18.8629C33.744 18.9505 33.6233 19.0784 33.5357 19.2464C33.4505 19.4122 33.4067 19.6122 33.4043 19.8466Z" fill="white"/>
</g>
<defs>
<filter id="filter0_d_1_8" x="0" y="15.3118" width="40.9199" height="17.8473" filterUnits="userSpaceOnUse" color-interpolation-filters="sRGB">
<feFlood flood-opacity="0" result="BackgroundImageFix"/>
<feColorMatrix in="SourceAlpha" type="matrix" values="0 0 0 0 0 0 0 0 0 0 0 0 0 0 0 0 0 0 127 0" result="hardAlpha"/>
<feOffset dy="4"/>
<feGaussianBlur stdDeviation="2"/>
<feComposite in2="hardAlpha" operator="out"/>
<feColorMatrix type="matrix" values="0 0 0 0 0 0 0 0 0 0 0 0 0 0 0 0 0 0 0.25 0"/>
<feBlend mode="normal" in2="BackgroundImageFix" result="effect1_dropShadow_1_8"/>
<feBlend mode="normal" in="SourceGraphic" in2="effect1_dropShadow_1_8" result="shape"/>
</filter>
</defs>
</svg>
